# xmcd
#
# Track frame offsets:
#	150
#	17064
#	20679
#	31267
#	42067
#	64871
#	87444
#	91889
#	97055
#	109480
#	120682
#	142420
#	153567
#	158995
#	176348
#	193638
#	202252
#	217813
#	228207
#	234103
#	241790
#	253645
#	268768
#
# Disc length: 3822 seconds
#
# Revision: 1
# Processed by: cddbd v1.5.2PL0 Copyright (c) Steve Scherf et al.
# Submitted via: audiograbber 1.83.01
#
DISCID=3f0eec17
DTITLE=Mel Tillis - You Ain't Gonna Believe This
DYEAR=2010
DGENRE=Country
TTITLE0=Huntin' Buddies
TTITLE1=Intro
TTITLE2=Sylvester
TTITLE3=I'm So Proud Of You
TTITLE4=Give Him A Trim
TTITLE5=Two Black Eyes
TTITLE6=I Thought He Only Had One Eye
TTITLE7=Biscuit In The Pocket
TTITLE8=Peed On The Matches
TTITLE9=You Wouldn't Believe It
TTITLE10=Imogene And Henry
TTITLE11=Who's Gonna Wear That Dress
TTITLE12=Duck Food
TTITLE13=Foot Foot
TTITLE14=Might Be My Son
TTITLE15=Blow It Out With The Hose
TTITLE16=I'm A-Paintin' Under This One
TTITLE17=Chickens In The Sack
TTITLE18=Am I Driving
TTITLE19=He Ought-a Said Something
TTITLE20=Mole Asses
TTITLE21=Cleo
TTITLE22=Slowin' Down
EXTD=
EXTT0=
EXTT1=
EXTT2=
EXTT3=
EXTT4=
EXTT5=
EXTT6=
EXTT7=
EXTT8=
EXTT9=
EXTT10=
EXTT11=
EXTT12=
EXTT13=
EXTT14=
EXTT15=
EXTT16=
EXTT17=
EXTT18=
EXTT19=
EXTT20=
EXTT21=
EXTT22=
PLAYORDER=
